<svg width="18" height="18" viewBox="0 0 18 18" fill="none" xmlns="http://www.w3.org/2000/svg">
<path d="M6.5625 7.5C6.5625 6.85353 6.81931 6.23355 7.27643 5.77643C7.73355 5.31931 8.35353 5.0625 9 5.0625C9.64647 5.0625 10.2665 5.31931 10.7236 5.77643C11.1807 6.23355 11.4375 6.85353 11.4375 7.5C11.4375 8.14647 11.1807 8.76645 10.7236 9.22357C10.2665 9.68069 9.64647 9.9375 9 9.9375C8.35353 9.9375 7.73355 9.68069 7.27643 9.22357C6.81931 8.76645 6.5625 8.14647 6.5625 7.5Z" fill="#1976D2"/>
<path fill-rule="evenodd" clip-rule="evenodd" d="M2.83053 6.65775C2.95494 5.14994 3.64176 3.74402 4.75464 2.71909C5.86752 1.69416 7.32509 1.12515 8.83803 1.125H9.16203C10.675 1.12515 12.1325 1.69416 13.2454 2.71909C14.3583 3.74402 15.0451 5.14994 15.1695 6.65775C15.3085 8.34112 14.7888 10.0127 13.7198 11.3205L10.125 15.717C9.98878 15.8838 9.81716 16.0181 9.62259 16.1104C9.42802 16.2027 9.21537 16.2506 9.00003 16.2506C8.78468 16.2506 8.57203 16.2027 8.37747 16.1104C8.1829 16.0181 8.01128 15.8838 7.87503 15.717L4.28103 11.3205C3.21176 10.0128 2.69175 8.34122 2.83053 6.65775ZM9.00003 3.9375C8.05519 3.9375 7.14906 4.31283 6.48096 4.98093C5.81286 5.64903 5.43753 6.55517 5.43753 7.5C5.43753 8.44483 5.81286 9.35097 6.48096 10.0191C7.14906 10.6872 8.05519 11.0625 9.00003 11.0625C9.94486 11.0625 10.851 10.6872 11.5191 10.0191C12.1872 9.35097 12.5625 8.44483 12.5625 7.5C12.5625 6.55517 12.1872 5.64903 11.5191 4.98093C10.851 4.31283 9.94486 3.9375 9.00003 3.9375Z" fill="#1976D2"/>
</svg>
