<svg width="25" height="24" viewBox="0 0 25 24" fill="" xmlns="http://www.w3.org/2000/svg">
<path d="M11.6501 3.40001L7.93012 9.48001C7.52012 10.14 8.00012 11 8.78012 11H16.2101C16.9901 11 17.4701 10.14 17.0601 9.48001L13.3501 3.40001C13.2617 3.25365 13.137 3.13259 12.9881 3.04856C12.8392 2.96453 12.6711 2.92038 12.5001 2.92038C12.3291 2.92038 12.161 2.96453 12.0121 3.04856C11.8632 3.13259 11.7385 3.25365 11.6501 3.40001Z" fill="#000"/>
<path d="M18 22C20.4853 22 22.5 19.9853 22.5 17.5C22.5 15.0147 20.4853 13 18 13C15.5147 13 13.5 15.0147 13.5 17.5C13.5 19.9853 15.5147 22 18 22Z" fill="#000"/>
<path d="M4.5 21.5H10.5C11.05 21.5 11.5 21.05 11.5 20.5V14.5C11.5 13.95 11.05 13.5 10.5 13.5H4.5C3.95 13.5 3.5 13.95 3.5 14.5V20.5C3.5 21.05 3.95 21.5 4.5 21.5Z" fill="#000"/>
</svg>
